<svg id="visual" viewBox="0 0 900 600" width="900" height="600" xmlns="http://www.w3.org/2000/svg" xmlns:xlink="http://www.w3.org/1999/xlink" version="1.1"><rect x="0" y="0" width="900" height="600" fill="#eb5867"></rect><path d="M0 165L39 165L39 356L78 356L78 157L117 157L117 137L157 137L157 368L196 368L196 234L235 234L235 256L274 256L274 156L313 156L313 130L352 130L352 180L391 180L391 133L430 133L430 253L470 253L470 265L509 265L509 376L548 376L548 131L587 131L587 220L626 220L626 256L665 256L665 142L704 142L704 305L743 305L743 202L783 202L783 262L822 262L822 368L861 368L861 375L900 375L900 218L900 0L900 0L861 0L861 0L822 0L822 0L783 0L783 0L743 0L743 0L704 0L704 0L665 0L665 0L626 0L626 0L587 0L587 0L548 0L548 0L509 0L509 0L470 0L470 0L430 0L430 0L391 0L391 0L352 0L352 0L313 0L313 0L274 0L274 0L235 0L235 0L196 0L196 0L157 0L157 0L117 0L117 0L78 0L78 0L39 0L39 0L0 0Z" fill="#c62368"></path><path d="M0 202L39 202L39 310L78 310L78 277L117 277L117 345L157 345L157 340L196 340L196 268L235 268L235 349L274 349L274 329L313 329L313 203L352 203L352 269L391 269L391 197L430 197L430 306L470 306L470 240L509 240L509 274L548 274L548 209L587 209L587 342L626 342L626 115L665 115L665 294L704 294L704 238L743 238L743 210L783 210L783 184L822 184L822 256L861 256L861 322L900 322L900 317L900 0L900 0L861 0L861 0L822 0L822 0L783 0L783 0L743 0L743 0L704 0L704 0L665 0L665 0L626 0L626 0L587 0L587 0L548 0L548 0L509 0L509 0L470 0L470 0L430 0L430 0L391 0L391 0L352 0L352 0L313 0L313 0L274 0L274 0L235 0L235 0L196 0L196 0L157 0L157 0L117 0L117 0L78 0L78 0L39 0L39 0L0 0Z" fill="#a92670"></path><path d="M0 187L39 187L39 265L78 265L78 141L117 141L117 268L157 268L157 211L196 211L196 249L235 249L235 298L274 298L274 105L313 105L313 262L352 262L352 262L391 262L391 291L430 291L430 170L470 170L470 112L509 112L509 236L548 236L548 260L587 260L587 270L626 270L626 143L665 143L665 301L704 301L704 210L743 210L743 276L783 276L783 140L822 140L822 282L861 282L861 219L900 219L900 130L900 0L900 0L861 0L861 0L822 0L822 0L783 0L783 0L743 0L743 0L704 0L704 0L665 0L665 0L626 0L626 0L587 0L587 0L548 0L548 0L509 0L509 0L470 0L470 0L430 0L430 0L391 0L391 0L352 0L352 0L313 0L313 0L274 0L274 0L235 0L235 0L196 0L196 0L157 0L157 0L117 0L117 0L78 0L78 0L39 0L39 0L0 0Z" fill="#8a2b72"></path><path d="M0 208L39 208L39 188L78 188L78 102L117 102L117 235L157 235L157 128L196 128L196 249L235 249L235 195L274 195L274 172L313 172L313 150L352 150L352 203L391 203L391 116L430 116L430 150L470 150L470 241L509 241L509 99L548 99L548 92L587 92L587 127L626 127L626 104L665 104L665 155L704 155L704 128L743 128L743 118L783 118L783 237L822 237L822 86L861 86L861 258L900 258L900 253L900 0L900 0L861 0L861 0L822 0L822 0L783 0L783 0L743 0L743 0L704 0L704 0L665 0L665 0L626 0L626 0L587 0L587 0L548 0L548 0L509 0L509 0L470 0L470 0L430 0L430 0L391 0L391 0L352 0L352 0L313 0L313 0L274 0L274 0L235 0L235 0L196 0L196 0L157 0L157 0L117 0L117 0L78 0L78 0L39 0L39 0L0 0Z" fill="#6a2d6f"></path><path d="M0 169L39 169L39 110L78 110L78 197L117 197L117 187L157 187L157 215L196 215L196 92L235 92L235 128L274 128L274 172L313 172L313 93L352 93L352 184L391 184L391 160L430 160L430 97L470 97L470 182L509 182L509 150L548 150L548 203L587 203L587 93L626 93L626 153L665 153L665 188L704 188L704 172L743 172L743 186L783 186L783 214L822 214L822 109L861 109L861 215L900 215L900 214L900 0L900 0L861 0L861 0L822 0L822 0L783 0L783 0L743 0L743 0L704 0L704 0L665 0L665 0L626 0L626 0L587 0L587 0L548 0L548 0L509 0L509 0L470 0L470 0L430 0L430 0L391 0L391 0L352 0L352 0L313 0L313 0L274 0L274 0L235 0L235 0L196 0L196 0L157 0L157 0L117 0L117 0L78 0L78 0L39 0L39 0L0 0Z" fill="#4b2d66"></path><path d="M0 127L39 127L39 71L78 71L78 173L117 173L117 180L157 180L157 82L196 82L196 165L235 165L235 88L274 88L274 158L313 158L313 135L352 135L352 105L391 105L391 70L430 70L430 106L470 106L470 87L509 87L509 154L548 154L548 168L587 168L587 174L626 174L626 141L665 141L665 163L704 163L704 81L743 81L743 101L783 101L783 148L822 148L822 123L861 123L861 100L900 100L900 181L900 0L900 0L861 0L861 0L822 0L822 0L783 0L783 0L743 0L743 0L704 0L704 0L665 0L665 0L626 0L626 0L587 0L587 0L548 0L548 0L509 0L509 0L470 0L470 0L430 0L430 0L391 0L391 0L352 0L352 0L313 0L313 0L274 0L274 0L235 0L235 0L196 0L196 0L157 0L157 0L117 0L117 0L78 0L78 0L39 0L39 0L0 0Z" fill="#2f2a58"></path><path d="M0 75L39 75L39 153L78 153L78 95L117 95L117 94L157 94L157 67L196 67L196 146L235 146L235 83L274 83L274 147L313 147L313 117L352 117L352 111L391 111L391 80L430 80L430 114L470 114L470 108L509 108L509 152L548 152L548 138L587 138L587 49L626 49L626 113L665 113L665 47L704 47L704 80L743 80L743 129L783 129L783 54L822 54L822 127L861 127L861 102L900 102L900 119L900 0L900 0L861 0L861 0L822 0L822 0L783 0L783 0L743 0L743 0L704 0L704 0L665 0L665 0L626 0L626 0L587 0L587 0L548 0L548 0L509 0L509 0L470 0L470 0L430 0L430 0L391 0L391 0L352 0L352 0L313 0L313 0L274 0L274 0L235 0L235 0L196 0L196 0L157 0L157 0L117 0L117 0L78 0L78 0L39 0L39 0L0 0Z" fill="#172447"></path><path d="M0 92L39 92L39 41L78 41L78 52L117 52L117 62L157 62L157 72L196 72L196 98L235 98L235 82L274 82L274 103L313 103L313 57L352 57L352 100L391 100L391 107L430 107L430 80L470 80L470 55L509 55L509 92L548 92L548 113L587 113L587 65L626 65L626 75L665 75L665 110L704 110L704 108L743 108L743 97L783 97L783 70L822 70L822 50L861 50L861 69L900 69L900 67L900 0L900 0L861 0L861 0L822 0L822 0L783 0L783 0L743 0L743 0L704 0L704 0L665 0L665 0L626 0L626 0L587 0L587 0L548 0L548 0L509 0L509 0L470 0L470 0L430 0L430 0L391 0L391 0L352 0L352 0L313 0L313 0L274 0L274 0L235 0L235 0L196 0L196 0L157 0L157 0L117 0L117 0L78 0L78 0L39 0L39 0L0 0Z" fill="#061c34"></path><path d="M0 59L39 59L39 38L78 38L78 28L117 28L117 71L157 71L157 67L196 67L196 45L235 45L235 38L274 38L274 63L313 63L313 64L352 64L352 18L391 18L391 28L430 28L430 23L470 23L470 73L509 73L509 38L548 38L548 56L587 56L587 29L626 29L626 28L665 28L665 54L704 54L704 44L743 44L743 74L783 74L783 59L822 59L822 69L861 69L861 67L900 67L900 67L900 0L900 0L861 0L861 0L822 0L822 0L783 0L783 0L743 0L743 0L704 0L704 0L665 0L665 0L626 0L626 0L587 0L587 0L548 0L548 0L509 0L509 0L470 0L470 0L430 0L430 0L391 0L391 0L352 0L352 0L313 0L313 0L274 0L274 0L235 0L235 0L196 0L196 0L157 0L157 0L117 0L117 0L78 0L78 0L39 0L39 0L0 0Z" fill="#001220"></path></svg>