<svg id="visual" viewBox="0 0 900 600" width="900" height="600" xmlns="http://www.w3.org/2000/svg" xmlns:xlink="http://www.w3.org/1999/xlink" version="1.1"><rect x="0" y="0" width="900" height="600" fill="#001220"></rect><path d="M0 185L15 186.7C30 188.3 60 191.7 90 199.3C120 207 150 219 180 221.8C210 224.7 240 218.3 270 220.8C300 223.3 330 234.7 360 241C390 247.3 420 248.7 450 242.2C480 235.7 510 221.3 540 218.7C570 216 600 225 630 214.2C660 203.3 690 172.7 720 177.3C750 182 780 222 810 225.7C840 229.3 870 196.7 885 180.3L900 164L900 0L885 0C870 0 840 0 810 0C780 0 750 0 720 0C690 0 660 0 630 0C600 0 570 0 540 0C510 0 480 0 450 0C420 0 390 0 360 0C330 0 300 0 270 0C240 0 210 0 180 0C150 0 120 0 90 0C60 0 30 0 15 0L0 0Z" fill="#69fabc"></path><path d="M0 179L15 183.7C30 188.3 60 197.7 90 191C120 184.3 150 161.7 180 155.8C210 150 240 161 270 163.5C300 166 330 160 360 168.2C390 176.3 420 198.7 450 198.5C480 198.3 510 175.7 540 171C570 166.3 600 179.7 630 179.3C660 179 690 165 720 153.8C750 142.7 780 134.3 810 139C840 143.7 870 161.3 885 170.2L900 179L900 0L885 0C870 0 840 0 810 0C780 0 750 0 720 0C690 0 660 0 630 0C600 0 570 0 540 0C510 0 480 0 450 0C420 0 390 0 360 0C330 0 300 0 270 0C240 0 210 0 180 0C150 0 120 0 90 0C60 0 30 0 15 0L0 0Z" fill="#8ffcc9"></path><path d="M0 157L15 147.7C30 138.3 60 119.7 90 112.7C120 105.7 150 110.3 180 121.2C210 132 240 149 270 146.2C300 143.3 330 120.7 360 116.7C390 112.7 420 127.3 450 142C480 156.7 510 171.3 540 175.3C570 179.3 600 172.7 630 157.3C660 142 690 118 720 119.3C750 120.7 780 147.3 810 149C840 150.7 870 127.3 885 115.7L900 104L900 0L885 0C870 0 840 0 810 0C780 0 750 0 720 0C690 0 660 0 630 0C600 0 570 0 540 0C510 0 480 0 450 0C420 0 390 0 360 0C330 0 300 0 270 0C240 0 210 0 180 0C150 0 120 0 90 0C60 0 30 0 15 0L0 0Z" fill="#affdd6"></path><path d="M0 150L15 147.2C30 144.3 60 138.7 90 137.5C120 136.3 150 139.7 180 132.3C210 125 240 107 270 95.7C300 84.3 330 79.7 360 85.3C390 91 420 107 450 108.7C480 110.3 510 97.7 540 97.7C570 97.7 600 110.3 630 110.2C660 110 690 97 720 97C750 97 780 110 810 115.7C840 121.3 870 119.7 885 118.8L900 118L900 0L885 0C870 0 840 0 810 0C780 0 750 0 720 0C690 0 660 0 630 0C600 0 570 0 540 0C510 0 480 0 450 0C420 0 390 0 360 0C330 0 300 0 270 0C240 0 210 0 180 0C150 0 120 0 90 0C60 0 30 0 15 0L0 0Z" fill="#cbfee4"></path><path d="M0 97L15 88C30 79 60 61 90 52.7C120 44.3 150 45.7 180 49.2C210 52.7 240 58.3 270 59.8C300 61.3 330 58.7 360 63.3C390 68 420 80 450 78.5C480 77 510 62 540 63C570 64 600 81 630 79.8C660 78.7 690 59.3 720 56.5C750 53.7 780 67.3 810 72.8C840 78.3 870 75.7 885 74.3L900 73L900 0L885 0C870 0 840 0 810 0C780 0 750 0 720 0C690 0 660 0 630 0C600 0 570 0 540 0C510 0 480 0 450 0C420 0 390 0 360 0C330 0 300 0 270 0C240 0 210 0 180 0C150 0 120 0 90 0C60 0 30 0 15 0L0 0Z" fill="#e6fff1"></path><path d="M0 54L15 54.3C30 54.7 60 55.3 90 51.7C120 48 150 40 180 39.5C210 39 240 46 270 52.3C300 58.7 330 64.3 360 63.3C390 62.3 420 54.7 450 48.5C480 42.3 510 37.7 540 38.7C570 39.7 600 46.3 630 46.7C660 47 690 41 720 35.5C750 30 780 25 810 27.5C840 30 870 40 885 45L900 50L900 0L885 0C870 0 840 0 810 0C780 0 750 0 720 0C690 0 660 0 630 0C600 0 570 0 540 0C510 0 480 0 450 0C420 0 390 0 360 0C330 0 300 0 270 0C240 0 210 0 180 0C150 0 120 0 90 0C60 0 30 0 15 0L0 0Z" fill="#ffffff"></path></svg>