<svg id="visual" viewBox="0 0 900 600" width="900" height="600" xmlns="http://www.w3.org/2000/svg" xmlns:xlink="http://www.w3.org/1999/xlink" version="1.1"><rect x="0" y="0" width="900" height="600" fill="#000000"></rect><path d="M0 374L82 371L164 367L245 343L327 309L409 357L491 347L573 343L655 344L736 334L818 337L900 369L900 601L818 601L736 601L655 601L573 601L491 601L409 601L327 601L245 601L164 601L82 601L0 601Z" fill="#393131"></path><path d="M0 394L82 348L164 385L245 360L327 366L409 364L491 416L573 387L655 415L736 405L818 379L900 381L900 601L818 601L736 601L655 601L573 601L491 601L409 601L327 601L245 601L164 601L82 601L0 601Z" fill="#524b4b"></path><path d="M0 391L82 405L164 403L245 389L327 420L409 412L491 400L573 410L655 382L736 419L818 394L900 379L900 601L818 601L736 601L655 601L573 601L491 601L409 601L327 601L245 601L164 601L82 601L0 601Z" fill="#6c6666"></path><path d="M0 438L82 420L164 450L245 453L327 422L409 453L491 444L573 466L655 435L736 420L818 411L900 442L900 601L818 601L736 601L655 601L573 601L491 601L409 601L327 601L245 601L164 601L82 601L0 601Z" fill="#888282"></path><path d="M0 480L82 479L164 472L245 442L327 487L409 447L491 463L573 481L655 460L736 471L818 443L900 471L900 601L818 601L736 601L655 601L573 601L491 601L409 601L327 601L245 601L164 601L82 601L0 601Z" fill="#a4a0a0"></path><path d="M0 491L82 495L164 497L245 480L327 501L409 506L491 487L573 510L655 476L736 506L818 514L900 499L900 601L818 601L736 601L655 601L573 601L491 601L409 601L327 601L245 601L164 601L82 601L0 601Z" fill="#c2bfbf"></path><path d="M0 525L82 514L164 527L245 516L327 546L409 524L491 542L573 539L655 521L736 528L818 510L900 544L900 601L818 601L736 601L655 601L573 601L491 601L409 601L327 601L245 601L164 601L82 601L0 601Z" fill="#e0dede"></path><path d="M0 568L82 548L164 569L245 563L327 551L409 574L491 575L573 571L655 552L736 554L818 560L900 565L900 601L818 601L736 601L655 601L573 601L491 601L409 601L327 601L245 601L164 601L82 601L0 601Z" fill="#ffffff"></path></svg>